<svg xmlns="http://www.w3.org/2000/svg"><defs><symbol id="star" viewBox="0 0 45 45"><path d="M43.37 33.21C45.15 27.27 39.48 22.36 39.47 21.73C39.47 21.1 46.87 15.37 43.89 11.02C40.51 6.09002 29.32 9.55002 28.68 9.09002C28.32 8.83002 27.96 6.77002 26.98 5.86002C11.42 -8.44998 15.84 7.16002 10.44 13.46C8.05999 16.24 1.23999 17.88 0.339993 20.85C-2.12001 28.95 9.79999 29.41 11.62 33.17C13.2 36.43 11.23 43.28 16.49 44.71C23.29 46.56 26.83 36.1 29.59 34.73C30.99 34.03 40.83 41.69 43.37 33.19V33.21Z" fill="var(--colors-space)"/><path d="M29.06 30.21C26.42 30.38 23.08 41.05 17.19 39.81C13.92 39.12 16.99 29.94 16.08 28.77C13.86 25.91 2.19001 28.1 4.69001 21.9C6.03001 18.56 14.67 18.01 16.01 15.76C17.12 13.89 15.67 4.86998 19.26 4.84998C21.05 4.84998 22.78 11.58 24.89 12.3C28.5 13.52 38.27 9.15998 39.43 13.05C40.61 16.98 33.39 19.04 32.97 20.75C32.14 24.18 40.65 27.98 39.43 32.09C36.34 33.78 30.19 30.14 29.06 30.21Z"/></symbol><symbol id="star-end" viewBox="0 0 45 43"><path d="M33.45 14.16C32.05 11.91 34.1299 1.78997 29.2199 0.329975C23.5299 -1.36003 20.61 5.42997 16.13 6.46997C10.47 7.77997 -0.0400484 1.80997 0.549952 11.53C0.759952 14.96 5.12998 18.62 4.88998 22.44C4.65998 26.1 -2.84001 33.98 3.83999 36.68C9.97999 39.16 16.54 34.74 18.43 35.2C19.86 35.55 22.08 41.07 24.56 42.13C35.64 46.84 33.05 31.13 34.4 29.66C35.16 28.84 48.08 29.71 43.14 21.38C41.05 17.86 33.76 14.69 33.44 14.18L33.45 14.16Z" fill="var(--colors-space)"/><path d="M29.39 26.26C27.24 29.27 31.26 34.6 29.48 37.26C26.81 41.23 21.22 30.72 20.57 30.62C17.64 30.16 1.84002 38.92 6.83002 27.71C7.77002 25.61 11.68 23.32 11.38 21.58C11.02 19.53 2.22999 14.98 5.41999 9.93998C7.11999 7.24998 15.27 12.11 17.28 11.94C20.78 11.65 23.83 3.36998 28.91 4.52998C29.47 5.07998 26.45 13.5 28 15.27C29.03 16.45 39.78 18.8 39.84 23.6C37.71 26.18 30.83 24.26 29.39 26.26Z"/></symbol><symbol id="diamond" viewBox="0 0 28 36"><path d="M20.35 27.54C21.23 22.12 23.88 18.94 27.87 15.45C25.75 13.32 22.97 13.79 20.3 12.14C17.33 10.3 11.92 0.290016 9.91 0.730016C7.97 1.16002 8.55 10.14 7.66 12.67C6.18 16.83 1.26 17.66 0.630005 21.44C6.5 21.4 11.34 23.87 14.65 28.69C15.25 29.57 17.35 37.51 20.25 34.53C20.49 34.28 20.09 29.17 20.35 27.54Z" fill="var(--colors-space)"/><path d="M18.06 26.9C16.58 25.23 8.53 19.75 8.33 18.59C8.21 17.92 12.69 10.57 13.16 10.56C15.51 12.95 17.73 15.73 21.34 16.01L18.06 26.9Z"/></symbol><symbol id="diamond-end" viewBox="0 0 28 35"><path d="M21.9599 13.94C21.0299 11.24 20.8299 1.27002 20.3699 0.800017C17.6999 -1.93998 14.0599 7.73001 12.0499 9.39001C9.47991 11.51 4.08992 13.21 0.739917 12.81C-0.0600835 15.89 3.09993 15.04 5.06993 16.64C10.4799 21.01 8.8799 34.63 11.0999 34.6C12.4499 34.58 20.8599 18.19 27.9999 22.62C27.6499 18.78 23.1999 17.56 21.9599 13.95V13.94Z" fill="var(--colors-space)"/><path d="M12.7501 26.98C13.4801 24.42 8.41008 16.12 8.46008 15.51C8.50008 14.99 15.9201 10.48 16.5301 10.61L21.4501 20.41C18.9901 19.82 13.6001 27.63 12.7501 26.98Z"/></symbol><symbol id="circle" viewBox="0 0 15 15"><path d="M7.82996 14.89C14.37 15.15 15.57 6.97997 12.39 3.11997C3.54996 -7.59003 -6.23004 14.33 7.82996 14.89Z" fill="var(--colors-space)"/><path d="M9.15999 4.19002C11.45 6.60002 11.6 13.34 6.85999 12.43C0.809987 11.27 3.89999 -1.32998 9.15999 4.19002Z"/></symbol></defs></svg>
