<svg xmlns="http://www.w3.org/2000/svg" viewBox="0 0 64 64"><path fill="#fec740" d="M56.58 45.7c1.74-5.85-10.46-11.27-9.27-16.15.6-2.45 10.97-5.37 9.27-10.97-1.68-5.56-15.69.67-20.87-1.07C32.68 16.5 30.2 6.88 27.63 6.9c-5.15.03-3.07 12.88-4.66 15.54-1.92 3.21-14.31 3.99-16.25 8.75-3.57 8.82 13.16 5.71 16.35 9.79 1.31 1.67-3.1 14.74 1.59 15.73 8.45 1.78 13.25-13.43 17.04-13.67 1.62-.1 10.45 5.09 14.88 2.68Z"/><path fill="#113058" d="M62.24 47.31c2.55-8.46-5.58-15.46-5.6-16.35 0-.9 10.62-9.06 6.34-15.26-4.85-7.02-20.91-2.09-21.83-2.75-.52-.37-1.03-3.3-2.44-4.6-22.33-20.38-15.99 1.85-23.74 10.83-3.42 3.96-13.2 6.3-14.5 10.53-3.53 11.54 13.58 12.19 16.19 17.55 2.27 4.64-.56 14.4 6.99 16.44 9.76 2.64 14.84-12.26 18.8-14.22 2.01-1 16.13 9.91 19.78-2.19v.03ZM41.7 43.03c-3.79.24-8.58 15.44-17.04 13.67-4.69-.98-.29-14.06-1.59-15.73-3.19-4.07-19.94-.95-16.35-9.79 1.92-4.76 14.32-5.54 16.25-8.75 1.59-2.66-.49-15.51 4.66-15.54 2.57 0 5.05 9.59 8.08 10.61 5.18 1.74 19.2-4.47 20.87 1.07 1.69 5.6-8.67 8.53-9.27 10.97-1.19 4.89 11.02 10.3 9.27 16.15-4.44 2.41-13.26-2.78-14.88-2.68Z"/></svg>
