<?xml version="1.0" encoding="UTF-8"?>
<svg xmlns="http://www.w3.org/2000/svg" width="85" height="208" viewBox="0 0 85 208">
  <path d="M293,37c0,2-1,13-2,13-3,2-15-2-17,2l-4,65c-2,9-6,6-14,7V51c0-6-15,0-16-8-3-17,13-6,16-9,3-9,0-19,13-16,11,2,3,13,7,16,4,3,15,0,17,2ZM235,59c-4,0-17,2-18-3-1-5,2-11-5-13-17-4-1,14-13,17-3,2-19-8-15,1,2,8,16,0,17,6l6,73s11,0,12-1c2-1,0-14,2-17l-2-55c2-6,13,0,16-4,1-2,2-12,0-13ZM685,126l-14-83c-1-2-11,0-12,0,0,0-1,1-1,11,1,23,8,6,12,84,0,2,3,13,4,14,3,3,22-4,25-7,4-4,4-12,2-17-3-7-13,4-16-2ZM133,122c-7-2-29,4-33,0-1-2-4-1-5-13-2-8-1-17-3-25-1-6-4-12-5-19-2-1,1-26-12-25-8,0-9,4-8,11l17,94c9-2,18-5,27-6,5,0,21,0,23-3,2-2,0-14-3-15ZM39,32c1-4-7-8-6-11,0-2,8-4,6-8-1-4-11,0-15,0-2,0-4-7-6-7-4,0-2,9-3,11-1,2-1,3-11,6-2,6,9,4,11,7,0,1-2,1,1,11,6,1,9-9,12-1,1,0,7,4,1,2ZM42,74s-5,7-5,8c0,1,8,7,1,8l3-11c-4,0-6-3-8-5ZM58,149c1-2,0-6,0-8-11-2-4,14,0,8ZM85,14c5,0,5-6,2-8-5-6-8,7-2,8ZM814,136c1-13,6-28-1-32-8-2-33,0-2-14,7-8,23-7,25-8,2-1,0-6-1-8-15-13-5,8-41,28,1,2,9,8,11,9,7,3,21,0,25,9,7,17-24,3-37,21-5-3-4-13-8-15-11-3-13,21,2,26,16,6,43-4,53-17ZM824,18c-2-2,1-1,0-11-5-1-8,7-12,7-2,0-1-5-12-2-3,5,6,1,6,12,0,2-4,4-5,6-5,11,11,2,14,3,0,0,6,11,9,7,2-3-2-8,0-11,1-2,8,0,1-3,0-5-11-7-12-8ZM83,92c0,0,5,9,4,11,0,0,6-7,9-7l-5-1c0,0-8,4-8,5ZM765,201c5,0,5-6,2-8-5-6-8,7-2,8ZM775,52c5,0,5-6,2-8-5-6-8,7-2,8ZM645,4c3,5-3,19-5,25-7,3-14,55-23,84,0,2,0,8-2,9,0,0-7,0-8,0-3,0,0-6-3-7,0,0-1,0-14,0-34-11-23-62,15-59,5,0,8,3,14,3,0-5,2-1,4-15,2-8,6-36,11-4,3-3,9-2,11,1ZM598,108c-2,0-7,3-8,4-5,6-2,18,7,18,14,0,15-23,1-22ZM43,2c2,2,1,8,1,1-1,33-7,66-11,99,0,7,3,14-8,11-4,0-2-6-4-7-1,0-4,2-5,2-16,2-34-11-34-28,0-24,23-38,44-31l3-45c0-2,2-12,3-13,1-2,9,0,11,0ZM385,109c1,8,13,1,17,3,12-19-2-27-17-3ZM355,73c3,14-4,45-6,6,0,2-4,19-5,19-3-1-7,0-9-2-2,0-2-4-4-5,0,0-4,1-6,1-11,0-28-13-29-25,0-23,29-37,46-22,9-14,2-37-17-32-7,2-13,11-15,11-2,0-6-3-7-4-2-5,1-15,14-17,12-7,21-7,31,3,3,3,6,6,7,11ZM321,112c-9,2-11,17,0,18,15,1,16-22,0-18ZM546,13c-1,11-29,17-38,0-7-12-4-3,3-41,6-11,24-22,37-14,17,11,1,43-2,55ZM531,92c-11,3-15,26,0,26,12,0,16-31,0-26ZM153,1c-2,19-41-13-41-32,0-19,17-46,38-28,15,13,19,46,3,61ZM134,55c-7,2-8,17-4,22,0,0,4,3,5,3,18,5,14-31,0-25ZM496,75c0,11-4,24-12,32-12,12-27,5-34-9-8-16-6-41,9-52,21-16,37,9,37,29ZM474,63c-12-4-18,18-1,24,2,2,7,2,1,1,8-2,7-23,0-25ZM754,71c0,15-2,16-16,14-7,0-18-7-23-7-8,0-8,24,3,29,9,4,22-9,26-7,5,4-6,14-1,16-11,4-22,2-3-7-21-25,12-73,42-54,6,4,8,9,9,16ZM73,61c-3,0-9,6-7,9,1,2,17,7,19,5,5-4-1-16-12-13Z" fill="#fff"/>
  <path d="M298,38c-4-9-16-4-18-7,0-5,3-11-2-15-3-3-17-4-2-2-6,3-4,14-4,15-2,2-16-5-18,8-2,14,3,18,16,17,0,18-2,37-2,55,0,3,0,9,0,12,2,9,14,9,21,7,4-1,8-23,8-27,0-2-1-5-1-8,0-13,1-25,1-38,6,0,12,0,18-3-1-4,3-11,1-14ZM291,5c-3,2-15-2-17,2l-4,65c-2,9-6,6-14,7V51c0-6-15,0-16-8-3-17,13-6,16-9,3-9,0-19,13-16,11,2,3,13,7,16,4,3,15,0,17,2,0,2-1,13-2,13ZM222,55c-3-2,3-14-7-17-3,0-13,0-16,0-6,2-4,11-5,16-13,1-2,2-17,18,1,9,11,9,17,7,0,22,3,44,3,66,0,8,2,7,24,5,3-2,4-12,5-16,0-8-2-16-2-24,0-11,0-21-1-32,3,0,15-2,16-3,0,0,1-11,1-12,0-12-14-5-19-8ZM234,72c-3,4-15-1-16,4l2,55c-1,3,0,15-2,17,0,0-11,2-12,1l-6-73c-2-5-15,2-17-6-4-18,12-7,15-1,4-3-4-21,13-17,8,2,4,8,5,13,1,5,14,2,18,3,1,0,0,11,0,13ZM703,124c-4-3-8,0-11,0-4,0-2-7-3-1-4-24-8-49-11-73-2-4-6-5-11-5-7,0-13,4-13,11,4,35,8,71,14,106,5,9,15,6,23,2,5-2,13-7,14-13,0-4,0-14-3-17ZM7,145c-3,3-22,1-25,7,0-1-3-12-4-14-5-23-11-61-12-84,0-1,0-11,1-11,0,0,1-1,12,0l14,83c4,6,13-5,16,2,2,4,1,13-2,17ZM135,118c-14-6-34,13-37-17l-1-63c-3-5-1-4-15-4-8,1-11,3-11,12,0,13,5,35,7,49,3,16,7,32,9,49,1,1,22,3,33,0,5-1,27-3,29-7,2-4,0-18-5-2ZM135,136c-3,2-18,2-23,3-9,1-18,5-27,6l-17-94c0-7,0-11,8-11,13,0,1,16,12,25,1,7,4,13,5,19,1,8,0,17,3,25,0,2,3,11,5,13,4,4,26-2,33,0,2,0,5,13,3,15ZM43,33c2-6-4-11-4-11,0,0,7-6,4-11-3-5-15-1-15-2,0,0,0-2-2-3-16-14-11,1-17,8-2,3-9,4-1,7-2,8,9,9,11,12,2,3,0,1,5,12,7,2,1-9,13-1,1,0,11,7,14-2ZM29,3c-3,0-6,11-12,1-3,0,0-1-1-11-2-3-14,0-11-7,1-3,1-4,11-6,1-2,0-11,3-11,2,0,4,7,6,7,4,1,13-3,15,0,1,4-6,6-6,8,0,3,8,7,6,11-3,2-9-2-1-2ZM49,91c0-5,4-9,8-12-2-2-5-2-8-3-3-2-8-12-1-11-2,0-1,9-2,12-1,4-6,5-7,9,6,0,11,2,14,7,0,0,3,9,6,6,0,0,0-5,0-7ZM47,9c-1-2-1-7-1-8,0,0,4-8,5-8,2,2,5,5,8,5l-3,11ZM53,138c-6,2-8,11,0,14,12,5,1-17,0-14ZM58,149c-4,6-12-9,0-8,0,2,2,6,0,8ZM86,17c7,0,8-8,5-12-9-11-19,11-5,12ZM87,6c2,2,2,9-2,8-6-1-3-14,2-8ZM829,179c-1-2,0-12-4-14-6-2-9,5-13,6-6,1-16-5-16,5,0,3,5,7,4,11,0,4-8,12-1,14,6,2,13-2,15-1,1,0,4,6,6,7,11,5,8-11,1-12,0,0,14,0,9-8-2-4-9-7-1-7ZM825,191c-2,3,2,8,0,11-3,4-8-7-9-7-3,0-19,8-14-3,0-2,5-4,5-6,0-2-9-7-6-12,2-3,1,2,12,2,3,0,7-9,12-7,0,0-2,9,0,11,1,1,12,4,12,8-2,3-9,0-1,3ZM844,9c0-3-1-13-2-13-3-3-6,7-8,9-3,2-8,4-11,3,0,3,2,2,4,4,5,4,4,18,6,18,1,0,1-16,17-12,0-4-5-5-6-9ZM835,103c0-3-4-11-4-11,0,0,7-5,8-5l5,1c-2,0-8,7-9,7ZM765,203c7,0,8-8,5-12-9-11-19,11-5,12ZM765,201c-6-1-3-14,2-8,2,2,2,9-2,8ZM776,54c7,0,8-8,5-12-9-11-19,11-5,12ZM778,43c2,2,2,9-2,8-6-1-3-14,2-8ZM824,121c0-1-9-18-18-2-4-1-17-1-19-3-4-4,7-1,11-11,5-1,15,0,16-7,3-13-14-15-23-15-22,2-38,33-16,47,8,5,19,1,26,7,11,9-1,22-18,22-2,0-11-2-12-3-4-4-1-15-12-14-14,0-15,25-3,32,21,11,72-7,7-34ZM759,127c4,1,4,11,8,15,13,9,43-5,37-21-3-9-18-7-25-9-2,0-1-7-11-9-9-2,26-41,41-28,2,2,3,7,1,8-2,2-18,0-25,8-13,15,12,12,2,14,16,4,19,19,1,32-1,13-37,23-53,17-15-5-13-3-2-26ZM63,36l-14,52c-6-1-11-3-17-3-37,2-47,65-3,7,2,0,5,0,5,0,0,0,0,2,0,3,2,3,17,6,19,2,11-39,21-79,3-119,0-9-17-14-21-5ZM641,65c-7,3-14,55-23,84,0,2,0,8-2,9,0,0-7,0-8,0-3,0,0-6-3-7,0,0-1,0-14,0-34-11-23-62,15-59,5,0,8,3,14,3,0-5,2-1,4-15,2-8,6-36,11-4,3-3,9-2,11,1,3,5-3,19-5,25ZM598,108c-2,0-7,3-8,4-5,6-2,18,7,18,14,0,15-23,1-22ZM601,125c-6,7-12-3-7-1,7-1,12,4,7,1ZM414,19l-6,54c-48-11-64,65-12,7,3,0,6-1,7,0,1,0,2,2,4,3,6,2,11,2,16,0,7-41,8-82,12-124,0-9-19-12-22-2ZM431,3c-1,33-7,66-11,99,0,7,3,14-8,11-4,0-2-6-4-7-1,0-4,2-5,2-16,2-34-11-34-28,0-24,23-38,44-31l3-45c0-2,2-12,3-13,1-2,9,0,11,0,2,2,1,8,1,1ZM385,109c1,8,13,1,17,3,12-19-2-27-17-3ZM392,113c-4-1-4-14,3-15,7,0,6,18-3,15ZM351,59c-1-9-21-12-34-5-7,4-23,19-15,27,8,8,13-2,19-5,17-11,23,5,2,2-13-7-25-7-37,2-21,16-13,47,12,54,8,2,1,0,18,5,6,3,11,5,16,0,2-15,4-3,8-44,2-18,1-37-6-51ZM349,134c0,2-4,19-5,19-3-1-7,0-9-2-2,0-2-4-4-5,0,0-4,1-6,1-11,0-28-13-29-25,0-23,29-37,46-22,9-14,2-37-17-32-7,2-13,11-15,11-2,0-6-3-7-4-2-5,1-15,14-17,12-7,21-7,31,3,3,3,6,6,7,11,3,14-4,45-6,6ZM321,112c-9,2-11,17,0,18,15,1,16-22,0-18ZM318,126c-3-7,1-16,1-7,0,7-5,8-1,7ZM553,72c-8-8-19-7-29-3-11,5-23,25-24,37-2,15,2,31,17,38,11,5,2,2,28-5,2-15,29-48,8-66ZM546,13c-1,11-29,17-38,0-7-12-4-3,3-41,6-11,24-22,37-14,17,11,1,43-2,55ZM531,92c-11,3-15,26,0,26,12,0,16-31,0-26ZM527,113c-2-4,6-22,1-15,2,3-4,17-1,15ZM156,37c0,0-1-2-3-3-8-5-18-7-26-4-2,8-22,37-16,54,1,27,43,36,56,6,7-18,4-41-11-54ZM153,1c-2,19-41-13-41-32,0-19,17-46,38-28,15,13,19,46,3,61ZM134,55c-7,2-8,17-4,22,0,0,4,3,5,3,18,5,14-31,0-25ZM138,78c-4-3-6-17,0-18,6-2,7,16,0,18ZM495,5c-8-12-21-18-35-12-17,8-22,34-19,51,2,1,6,16,14,22,5,4,7,5,14,6,32,2,41-45,26-67ZM484,107c-12,12-27,5-34-9-8-16-6-41,9-52,21-16,37,9,37,29,0,11-4,24-12,32ZM474,63c-12-4-18,18-1,24,2,2,7,2,1,1,8-2,7-23,0-25ZM469,84c-3,0-4-21,5-17,2,3,1,19-5,17ZM758,7c0-18-2-28-36-23-9,3-22,15-26,23-12,25,3,56,33,51,8-1,23-11,18-2-5-9-15,2-22,3-13,2-16-15-11-23,2-1,33,13,4,6,1,0,3-15,3-17ZM738,85c-7,0-18-7-23-7-8,0-8,24,3,29,9,4,22-9,26-7,5,4-6,14-1,16-11,4-22,2-3-7-21-25,12-73,42-54,6,4,8,9,9,16,0,15-2,16-16,14ZM73,61c-3,0-9,6-7,9,1,2,17,7,19,5,5-4-1-16-12-13ZM727,68c2-4,9-6,12-3,0,0,1,3,1,4,0,5-1,0-13,0Z"/>
</svg>