<?xml version="1.0" encoding="UTF-8"?>
<svg xmlns="http://www.w3.org/2000/svg" width="850" height="208" viewBox="0 0 850 208">
  <g>
    <path d="M824,180.27c-1.55-1.78,1.47-10.2.91-10.74-5.07-1.16-8.13,7.11-11.63,7.41-2.02.17-10.16-4.7-11.86-2-3.18,5.04,5.61,9.59,5.96,11.64.3,1.74-3.62,4.03-4.55,6.13-4.99,11.2,10.8,2.45,13.74,2.91.65.1,6.24,10.62,8.91,6.64,1.78-2.65-2.24-7.99-.09-11,1.43-2.01,8.32-.09,10.45-2.66-.06-4.79-10.81-7.14-11.84-8.33Z" fill="#fff"/>
    <path d="M764.52,200.95c4.74.91,4.59-5.83,2.3-8.24-5.26-5.53-8.35,7.08-2.3,8.24Z" fill="#fff"/>
    <path d="M830.46,91.52c-.05.61,5.02,8.91,4.29,11.47.85.65,6.24-7.15,8.7-6.57l-4.92-9.8c-.61-.13-8.03,4.37-8.07,4.9Z" fill="#fff"/>
    <path d="M775.43,51.52c4.74.91,4.59-5.83,2.3-8.24-5.26-5.53-8.35,7.08-2.3,8.24Z" fill="#fff"/>
    <path d="M814,136.25c9.54-12.56,6.42-27.82-9.59-31.85-8.07-2.03-32.8.87-19.85-13.94,7.38-8.44,22.95-6.63,24.95-8.32,1.55-1.3.92-6.23-1.03-8-14.66-13.31-49.76,7.85-40.81,27.73,1.02,2.26,9.02,8.35,11.49,9.23,7.02,2.5,21.29.54,24.74,9.09,6.7,16.6-23.79,30-36.77,21.48-4.75-3.12-4.15-13.32-8.45-14.54-11.18-3.19-12.92,21.13,2.07,26.37,15.92,5.57,43.24-4.07,53.25-17.25Z" fill="#fff"/>
    <path d="M744.06,100.91c-3.7-2.64-16.66,10.11-25.59,6.52-11.55-4.63-11.53-28.5-3.22-29.06,5.43-.37,16.62,5.98,23.21,6.89,14.51,2,16.56.14,16.01-14.44-.26-6.83-2.64-12.12-8.63-15.85-30.37-18.92-63.36,29.67-42.49,54.48,7.75,9.22,19.11,11.7,30.23,7.5,4.43-1.67,15.54-12.42,10.47-16.04ZM729.69,60.67c11.31-2.56,17.45,9.9,12.38,13.48-2.55,1.8-17.96-3.13-19.24-4.91-2.09-2.9,4.13-7.95,6.85-8.57Z" fill="#fff"/>
    <path d="M685.48,126.23l-13.56-82.97c-1.26-1.65-11.2-.57-11.66-.19-.52.43-1.25,9.97-1.19,11.33,1.09,22.99,7.8,60.46,12.31,83.73.46,2.39,2.63,12.91,3.51,13.94,2.95,3.46,21.74-4.17,24.63-7.04,3.56-3.53,4.42-12.41,2.41-16.71-3.4-7.27-12.63,4.02-16.45-2.1Z" fill="#fff"/>
    <path d="M634.46,38.56c-4.33,4.85-8.6,32.15-10.82,40.44-1.35,5.07-4.29,9.84-3.84,15.26-5.1-.09-8.28-2.83-13.59-3.32-37.91-3.51-48.94,47.63-15.01,58.64,4.68,1.52,13.9.31,14.48.76,1.87,1.43-.05,6.08,2.81,7.04,1.12.38,7.14.47,7.89,0,1.08-.68,1.19-6.8,1.73-8.63,8.55-29,16.23-54.42,22.74-84.16,1.23-5.6,7.42-20.22,4.6-24.88-1.72-2.84-8.08-4.42-11-1.15ZM596.45,130.19c-9.33-.4-11.72-11.71-6.86-18.16.93-1.24,6.23-4.2,8-4.32,14.23-.99,12.69,23.08-1.14,22.49Z" fill="#fff"/>
    <path d="M548.17,74.81c-12.18-7.6-30.21,3.5-36.57,14.33-7.01,11.94-9.69,29.06-2.87,41.46,8.92,16.23,27.11,10.67,37.6-.74,11.52-12.53,18.94-44.39,1.84-55.06ZM530.93,118.15c-14.78.2-11.1-22.43.22-25.85,15.84-4.78,11.6,25.69-.22,25.85Z" fill="#fff"/>
    <path d="M458.9,46.27c-15.04,11.04-17.08,35.83-9.09,51.62,6.91,13.64,21.84,21.11,34.33,9.07,7.75-7.46,11.86-21.19,11.77-31.79-.18-19.93-15.71-44.55-37.02-28.9ZM473.95,88.58c-2.52.75-7.77.51-9.83-1.18-8.18-6.67-2.27-28.22,9.57-24.31,7.64,2.53,7.97,23.2.27,25.48Z" fill="#fff"/>
    <path d="M418.96,19.64c-.81,1.19-2.84,10.82-3.14,13l-3.28,45.26c-21.98-7.35-44.68,7.31-44.49,31.08.14,17.03,17.83,29.69,34.08,27.76,1.93-.23,4.39-2.35,5.48-2.13,2.28.46.33,5.73,4.37,6.56,11.15,2.29,7.42-4.63,8.21-11.45,3.83-33.13,9.65-65.84,10.94-99.22.1-2.54.32-8.43-1.39-10.15-1.45-1.45-9.74-2.22-10.78-.71ZM402.29,112.42c-3.83,6.22-15.93,5.01-17.08-3.38-3.24-23.66,28.98-15.96,17.08,3.38Z" fill="#fff"/>
    <path d="M317.71,58.9c-4.02,2.3-15.59,11.77-13.68,16.88.53,1.43,4.83,4.33,6.53,4.29,2.04-.05,8.01-9.74,14.66-11.47,19.44-5.03,25.81,18.55,16.95,32.18-17.03-14.24-47.09-.19-46.22,22.44.44,11.59,17.77,24.18,28.76,24.59,2.14.08,5.47-1.24,6.45-1.01,1.65.39,2.16,3.86,3.91,4.73,2.2,1.1,6.59.58,9.2,1.67,1-.08,4.24-17.04,4.68-19.43,2.79-14.97,9.22-46.54,6.36-60.3-1.06-5.09-3.61-7.8-6.74-11.25-9.77-10.76-18.57-10.36-30.87-3.33ZM320.35,130.29c-11.24-1.02-8.85-16.26.23-18.35,15.27-3.51,14.9,19.72-.23,18.35Z" fill="#fff"/>
    <path d="M291.29,50.48c.71-.45,2.67-11.02,1.88-13.01-2.01-2.76-12.99.72-16.56-2.02-3.95-3.03,4-13.79-6.66-16.23-13.39-3.06-10.54,6.33-13.36,15.67-3.1,2.25-19.77-8.84-16.38,8.61,1.36,6.99,16.06,2.28,17.26,7.87l-.93,73.42c8.02-.86,12.2,1.49,13.93-7.36l4.07-64.64c2.25-4.62,14.06-.62,16.76-2.32Z" fill="#fff"/>
    <path d="M234.61,59.46c-4.15-.94-16.83,1.68-18.23-3.05-1.43-4.85,2.48-11.41-5.36-13.17-17.14-3.86-9.51,14-13.35,16.76-3.37,2.42-19.42-8.01-15.25,9.66,1.87,7.95,15.72.83,17.24,5.67l5.61,73.47c.41.43,11.38-.87,11.84-1.24,1.67-1.35.9-13.57,1.93-16.57l-1.55-54.5c1.74-5.92,13.16-.54,16.25-4.48,1.19-1.51,1.94-11.93.88-12.55Z" fill="#fff"/>
    <path d="M150.37,38.97c-20.49-17.37-37.98,9.14-37.72,28.49.26,19.62,20.54,51.08,40.81,32.28,15.46-14.35,12.32-47.71-3.08-60.77ZM135.14,80.96c-.4-.11-4.62-3.09-4.83-3.39-3.57-5.18-2.82-19.87,3.97-22.11,15.18-5.01,19.27,30.65.86,25.5Z" fill="#fff"/>
    <path d="M132.57,121.67c-6.9-2.36-28.8,4.03-32.57-.17-1.39-1.54-4.13-10.32-4.65-12.79-1.67-7.85-1.19-17.16-2.55-24.72-1.08-6.01-3.82-12.36-5.02-18.97-1.75-9.6,1.1-25.94-11.75-25.33-7.91.38-8.57,4.49-8.22,11.48l17.45,94.38c9.09-1.58,17.88-4.77,27-6.27,4.93-.81,20.57-.9,23.19-3.01,1.9-1.53-.88-13.9-2.88-14.58Z" fill="#fff"/>
    <path d="M84.86,14.43c4.74.91,4.59-5.83,2.3-8.24-5.26-5.53-8.35,7.08-2.3,8.24Z" fill="#fff"/>
    <path d="M57.51,148.87c1.36-1.9,0-5.53-.72-7.59-11.15-1.64-3.68,13.73.72,7.59Z" fill="#fff"/>
    <path d="M42.16,73.56c-.47,0-4.95,7.36-4.83,8.03.2,1.16,8.25,6.64,9.73,8.31l3.28-10.89c-3.61-.28-5.83-3.06-8.18-5.45Z" fill="#fff"/>
    <path d="M39.43,32.08c1.21-4.11-7.29-7.91-6.46-11.34.42-1.72,7.64-3.77,6.46-7.7-1.17-3.9-10.93.47-14.54-.75-2.11-.71-3.84-7.46-5.63-7.45-3.59.02-2.14,9.04-3.25,10.91-1.34,2.25-9.97,2.8-11.32,6.14-2.49,6.19,9.17,4.01,11.39,6.87.91,1.17-2.16,10.35,1.11,11.04,5.89,1.25,9.23-9.43,11.87-9.6,1.13-.07,7.28,3.57,10.37,1.88Z" fill="#fff"/>
  </g>
  <path d="M296.96,52.14c-1.44-4.43,2.82-10.5,1.33-14.27-3.6-9.07-16.31-4-18.39-6.82-.31-5.02,2.63-10.84-1.89-14.97-3.24-2.97-16.68-3.63-20.37-1.97-6.3,2.84-3.81,14.15-4.38,14.71-1.76,1.76-16.49-4.75-18.45,8.28-2.05,13.7,2.89,17.67,16.26,16.8-.35,18.24-1.89,36.72-1.71,54.96.03,3.42.03,8.92.71,12.05,2,9.23,14.27,9.32,21.44,6.83,4.3-1.49,7.87-22.86,7.92-27.47.03-2.3-1.2-4.73-1.14-7.58.25-12.6,1.02-25.1,1.14-37.69,6.2.27,12.05.4,17.53-2.85ZM274.53,52.81l-4.07,64.64c-1.73,8.84-5.91,6.5-13.93,7.36l.93-73.42c-1.2-5.6-15.9-.88-17.26-7.87-3.39-17.44,13.28-6.36,16.38-8.61,2.82-9.34-.04-18.73,13.36-15.67,10.67,2.43,2.71,13.19,6.66,16.23,3.57,2.74,14.55-.74,16.56,2.02.79,1.99-1.16,12.56-1.88,13.01-2.7,1.7-14.51-2.3-16.76,2.32ZM221.55,54.52c-3.04-2.11,2.86-14.48-7.25-16.75-2.81-.63-13.07-.7-15.56.34-5.97,2.48-4.11,10.56-4.51,15.66-13.32,1.03-19.92,2.26-17.27,18.07,1.43,8.53,10.71,8.6,17.39,7.15-.32,22.06,2.77,43.9,3.3,65.97.47,7.91,20.44,7.23,23.52,5.01,2.89-2.08,4.46-12.43,4.75-16.07.65-7.99-1.7-15.97-2.1-23.84-.54-10.69.29-21.48-1.09-32.15,3.01,0,14.64-1.68,16.17-3.45.41-.47,1.39-11.11,1.34-12.36-.45-12.08-14.43-4.62-18.69-7.58ZM233.73,72.01c-3.09,3.93-14.51-1.45-16.25,4.48l1.55,54.5c-1.02,3-.25,15.21-1.93,16.57-.46.37-11.43,1.67-11.84,1.24l-5.61-73.47c-1.51-4.84-15.36,2.28-17.24-5.67-4.16-17.67,11.89-7.24,15.25-9.66,3.84-2.76-3.79-20.61,13.35-16.76,7.84,1.76,3.92,8.33,5.36,13.17,1.4,4.73,14.07,2.11,18.23,3.05,1.06.62.31,11.04-.88,12.55ZM702.68,124.31c-4.31-3.31-7.96-.09-11.38-.54-4.45-.59-2.27-6.85-2.87-10.31-4.16-24.14-7.66-48.57-11.06-72.93-2.04-4.19-6.48-5.38-10.88-4.94-6.52.65-12.85,3.75-12.76,11.09,4.16,35.34,8.37,70.6,14.34,105.67,5.46,9.4,15.3,5.75,23.4,2.1,4.94-2.22,13.04-7.46,14.29-12.98.89-3.96.39-14.49-3.09-17.17ZM699.52,145.04c-2.89,2.86-21.68,10.5-24.63,7.04-.87-1.03-3.04-11.55-3.51-13.94-4.51-23.27-11.23-60.74-12.31-83.73-.06-1.36.67-10.9,1.19-11.33.46-.38,10.4-1.46,11.66.19l13.56,82.97c3.82,6.12,13.05-5.16,16.45,2.1,2.01,4.31,1.15,13.19-2.41,16.71ZM135.41,117.74c-13.61-5.65-33.82,13.21-36.74-16.71l-10.38-62.7c-3.44-5.14-9.96-4.47-15.26-3.75-8.49,1.16-11.02,3.44-10.72,12.27.46,13.28,4.53,35.06,6.74,48.9,2.59,16.26,6.52,32.41,9.13,48.68,9.74,10.08,21.64,2.59,33.05.33,5.29-1.05,27.37-3.25,29.14-6.85,1.85-3.74-.17-18.19-4.94-20.17ZM135.45,136.25c-2.63,2.1-18.26,2.2-23.19,3.01-9.12,1.5-17.92,4.69-27,6.27l-17.45-94.38c-.35-6.98.31-11.1,8.22-11.48,12.85-.61,10,15.74,11.75,25.33,1.21,6.62,3.95,12.96,5.02,18.97,1.36,7.57.88,16.88,2.55,24.72.53,2.47,3.26,11.25,4.65,12.79,3.77,4.2,25.66-2.19,32.57.17,2,.68,4.78,13.05,2.88,14.58ZM43.37,33.21c1.78-5.94-3.89-10.85-3.9-11.48,0-.63,7.4-6.36,4.42-10.71-3.38-4.93-14.57-1.47-15.21-1.93-.36-.26-.72-2.32-1.7-3.23-15.56-14.31-11.14,1.3-16.54,7.6-2.38,2.78-9.2,4.42-10.1,7.39-2.46,8.1,9.46,8.56,11.28,12.32,1.58,3.26-.39,10.11,4.87,11.54,6.8,1.85,10.34-8.61,13.1-9.98,1.4-.7,11.24,6.96,13.78-1.54ZM29.06,30.21c-2.64.17-5.98,10.84-11.87,9.6-3.27-.69-.2-9.87-1.11-11.04-2.22-2.86-13.89-.67-11.39-6.87,1.34-3.34,9.98-3.89,11.32-6.14,1.11-1.87-.34-10.89,3.25-10.91,1.79,0,3.52,6.73,5.63,7.45,3.61,1.22,13.38-3.14,14.54.75,1.18,3.93-6.04,5.99-6.46,7.7-.83,3.43,7.68,7.23,6.46,11.34-3.09,1.69-9.24-1.95-10.37-1.88ZM49.35,90.54c.88-5.42,3.53-8.6,7.52-12.09-2.12-2.13-4.9-1.66-7.57-3.31-2.97-1.84-8.38-11.85-10.39-11.41-1.94.43-1.36,9.41-2.25,11.94-1.48,4.16-6.4,4.99-7.03,8.77,5.87-.04,10.71,2.43,14.02,7.25.6.88,2.7,8.82,5.6,5.84.24-.25-.16-5.36.1-6.99ZM47.06,89.9c-1.48-1.67-9.53-7.15-9.73-8.31-.12-.67,4.36-8.02,4.83-8.03,2.35,2.39,4.57,5.17,8.18,5.45l-3.28,10.89ZM53.31,138.05c-5.98,1.67-7.54,11.24-.5,14.29,11.97,5.18,9.86-16.91.5-14.29ZM57.51,148.87c-4.4,6.13-11.87-9.24-.72-7.59.72,2.07,2.08,5.7.72,7.59ZM85.83,16.89c6.54.26,7.74-7.91,4.56-11.77-8.84-10.71-18.62,11.21-4.56,11.77ZM87.16,6.19c2.29,2.41,2.44,9.15-2.3,8.24-6.05-1.16-2.96-13.76,2.3-8.24ZM829.45,179.16c-1.4-2.25.68-12.37-4.23-13.83-5.69-1.69-8.61,5.1-13.09,6.14-5.66,1.31-16.17-4.66-15.58,5.06.21,3.43,4.58,7.09,4.34,10.91-.23,3.66-7.73,11.54-1.05,14.24,6.14,2.48,12.7-1.94,14.59-1.48,1.43.35,3.65,5.87,6.13,6.93,11.08,4.71,8.49-11,9.84-12.47.76-.82,13.68.05,8.74-8.28-2.09-3.52-9.38-6.69-9.7-7.2ZM825.39,191.26c-2.15,3.01,1.87,8.34.09,11-2.67,3.97-8.26-6.54-8.91-6.64-2.93-.46-18.73,8.3-13.74-2.91.94-2.1,4.85-4.39,4.55-6.13-.36-2.05-9.15-6.6-5.96-11.64,1.7-2.69,9.85,2.17,11.86,2,3.5-.29,6.55-8.57,11.63-7.41.56.55-2.46,8.97-.91,10.74,1.03,1.18,11.78,3.53,11.84,8.33-2.13,2.58-9.01.66-10.45,2.66ZM843.96,89.94c-.93-2.7-1.13-12.67-1.59-13.14-2.67-2.74-6.31,6.93-8.32,8.59-2.57,2.12-7.96,3.82-11.31,3.42-.8,3.08,2.36,2.23,4.33,3.83,5.41,4.37,3.81,17.99,6.03,17.96,1.35-.02,9.76-16.41,16.9-11.98-.35-3.84-4.8-5.06-6.04-8.67ZM834.75,102.98c.73-2.56-4.34-10.86-4.29-11.47.04-.52,7.46-5.03,8.07-4.9l4.92,9.8c-2.46-.59-7.85,7.22-8.7,6.57ZM765.49,203.41c6.54.26,7.74-7.91,4.56-11.77-8.84-10.71-18.62,11.21-4.56,11.77ZM764.52,200.95c-6.05-1.16-2.96-13.76,2.3-8.24,2.29,2.41,2.44,9.15-2.3,8.24ZM776.4,53.98c6.54.26,7.74-7.91,4.56-11.77-8.84-10.71-18.62,11.21-4.56,11.77ZM777.73,43.28c2.29,2.41,2.44,9.15-2.3,8.24-6.05-1.16-2.96-13.76,2.3-8.24ZM823.75,121.15c-.67-9.92-9.19-17.57-18.41-19.86-4.11-1.02-17.49-1.11-19.44-2.92-4.43-4.08,7.29-10.3,10.6-11.24,4.81-1.37,15.17-.41,16.39-6.52,2.5-12.55-14.2-15.47-23.43-14.72-21.69,1.75-38.13,32.67-16.19,46.74,8.49,5.45,19.23,1.43,25.89,6.84,11.06,8.99-10.03,21.59-18.29,21.59-2.18,0-10.61-1.71-12.19-3.11-3.99-3.53-1.47-14.84-11.93-14.31-14.47.72-14.84,25.43-3.15,31.57,21.43,11.26,72.02-6.54,70.16-34.06ZM758.69,127.13c4.3,1.22,3.7,11.42,8.45,14.54,12.99,8.52,43.47-4.88,36.77-21.48-3.45-8.55-17.72-6.59-24.74-9.09-2.47-.88-10.48-6.96-11.49-9.23-8.95-19.88,26.15-41.03,40.81-27.73,1.95,1.77,2.58,6.7,1.03,8-2,1.68-17.58-.12-24.95,8.32-12.95,14.81,11.78,11.91,19.85,13.94,16.01,4.03,19.13,19.29,9.59,31.85-10.01,13.18-37.33,22.82-53.25,17.25-14.99-5.24-13.25-29.56-2.07-26.37ZM629.89,36.16l-14.39,52.18c-5.86-1.11-10.71-3.15-16.98-2.86-37.46,1.72-46.94,65.4-2.75,70.47,1.6.18,5.18-.91,5.49-.6.17.16-.31,1.98.28,2.91,2.18,3.43,17.12,5.72,19.15,1.78,11.33-39.36,21.11-79.13,30.18-119.08.49-8.84-17.26-13.54-20.99-4.8ZM640.86,64.59c-6.51,29.73-14.19,55.16-22.74,84.16-.54,1.84-.65,7.95-1.73,8.63-.75.47-6.76.38-7.89,0-2.86-.96-.94-5.61-2.81-7.04-.58-.44-9.8.76-14.48-.76-33.93-11.01-22.9-62.15,15.01-58.64,5.31.49,8.49,3.24,13.59,3.32-.46-5.42,2.48-10.19,3.84-15.26,2.22-8.3,6.48-35.6,10.82-40.44,2.92-3.27,9.28-1.69,11,1.15,2.82,4.66-3.37,19.28-4.6,24.88ZM597.6,107.7c-1.77.12-7.07,3.08-8,4.32-4.86,6.45-2.47,17.76,6.86,18.16,13.83.6,15.37-23.48,1.14-22.49ZM601,124.54c-6.14,6.65-11.62-2.85-6.79-9.53,6.96-9.63,12.33,3.54,6.79,9.53ZM413.92,18.75l-5.75,53.7c-48.28-11.39-63.69,65.06-12.37,69.73,2.74.25,5.7-1.25,7.25-.85,1.23.32,2.2,2.27,3.78,2.82,5.64,1.98,10.7,1.6,16.38.05,6.51-40.96,8.48-82.29,12.34-123.59-.5-8.8-19.41-12.18-21.63-1.87ZM431.13,30.5c-1.29,33.38-7.12,66.09-10.94,99.22-.79,6.82,2.94,13.74-8.21,11.45-4.05-.83-2.1-6.1-4.37-6.56-1.09-.22-3.55,1.9-5.48,2.13-16.25,1.93-33.94-10.73-34.08-27.76-.19-23.77,22.51-38.43,44.49-31.08l3.28-45.26c.3-2.18,2.33-11.82,3.14-13,1.03-1.51,9.33-.73,10.78.71,1.72,1.72,1.49,7.61,1.39,10.15ZM385.21,109.05c1.15,8.39,13.25,9.6,17.08,3.38,11.9-19.34-20.32-27.04-17.08-3.38ZM392.49,112.73c-3.96-1.33-3.52-14.42,3.33-15.04,6.79-.61,5.77,18.1-3.33,15.04ZM350.86,59.39c-10.19-9.39-20.91-11.55-33.65-5.36-7.34,3.56-22.97,18.6-14.91,26.66,7.92,7.91,12.88-1.71,18.7-5.4,17.45-11.06,23.37,4.55,19.53,20.06-12.76-6.54-25.29-7.38-36.99,1.73-20.72,16.14-12.89,46.76,11.68,53.58,8.26,2.29,9.65.85,18.01,4.9,5.86,2.83,11.03,5.44,15.83-.97,1.65-14.66,3.54-29.63,7.54-43.73,1.86-18.17,9.82-37.14-5.73-51.47ZM348.96,133.77c-.44,2.39-3.69,19.35-4.68,19.43-2.62-1.1-7-.57-9.2-1.67-1.75-.87-2.26-4.34-3.91-4.73-.97-.23-4.31,1.09-6.45,1.01-11-.41-28.32-13.01-28.76-24.59-.87-22.63,29.19-36.68,46.22-22.44,8.86-13.63,2.49-37.21-16.95-32.18-6.66,1.72-12.63,11.42-14.66,11.47-1.7.04-6-2.86-6.53-4.29-1.91-5.11,9.66-14.58,13.68-16.88,12.3-7.04,21.1-7.44,30.87,3.33,3.13,3.45,5.68,6.16,6.74,11.25,2.86,13.76-3.58,45.33-6.36,60.3ZM320.58,111.95c-9.08,2.09-11.47,17.33-.23,18.35,15.14,1.38,15.51-21.86.23-18.35ZM317.62,125.9c-3.18-7.4,9.77-16.03,10.42-7.12.5,6.76-4.77,7.97-10.42,7.12ZM553.31,71.86c-8.23-7.56-19.44-7.39-29.15-2.88-10.88,5.05-22.83,25.03-24.23,36.86-1.79,15.17,1.58,31.06,16.77,37.54,10.59,4.52,19.67,1.62,28.3-5.01,19.8-15.22,28.52-47.92,8.31-66.49ZM546.34,129.87c-10.49,11.41-28.68,16.97-37.6.74-6.82-12.4-4.14-29.53,2.87-41.46,6.36-10.83,24.39-21.93,36.57-14.33,17.11,10.67,9.68,42.53-1.84,55.06ZM531.15,92.3c-11.32,3.42-14.99,26.05-.22,25.85,11.82-.16,16.05-30.63.22-25.85ZM527.09,112.8c-2.17-4.04,5.56-21.53,9.66-15.1,2.17,3.4-3.6,16.98-9.66,15.1ZM155.55,37.1c-.99-.85-1.32-2.42-2.7-3.31-7.64-4.96-17.79-7.3-26.41-3.59-19.54,8.4-22.19,36.82-15.75,54.44,10.05,27.47,43.28,35.63,55.62,6.14,7.33-17.52,3.84-41.1-10.77-53.68ZM153.46,99.74c-20.27,18.81-40.54-12.66-40.81-32.28-.26-19.35,17.23-45.86,37.72-28.49,15.41,13.06,18.55,46.42,3.08,60.77ZM134.29,55.46c-6.79,2.24-7.54,16.94-3.97,22.11.2.29,4.43,3.27,4.83,3.39,18.41,5.15,14.32-30.51-.86-25.5ZM138.16,77.88c-3.84-3.09-6.22-17-.92-18.39,6.06-1.59,6.5,16.23.92,18.39ZM494.84,50.16c-8.05-11.96-21.18-18.2-35.04-11.72-16.66,7.79-22.19,33.96-18.6,50.61,2.13,9.88,6.2,16.44,13.82,22.2,4.67,3.53,6.69,5.43,13.73,5.91,31.55,2.17,40.97-44.91,26.1-67.01ZM484.15,106.96c-12.5,12.04-27.42,4.57-34.33-9.07-8-15.79-5.95-40.58,9.09-51.62,21.31-15.64,36.84,8.97,37.02,28.9.09,10.59-4.02,24.33-11.77,31.79ZM473.69,63.09c-11.84-3.91-17.75,17.63-9.57,24.31,2.07,1.68,7.32,1.93,9.83,1.18,7.7-2.28,7.38-22.96-.27-25.48ZM468.73,84.44c-2.87-.88-3.65-20.65,4.89-17.45,1.68,3.33,1.28,19.35-4.89,17.45ZM747.31,101.5c-4.95-9.48-14.98,2.26-21.61,3.19-12.66,1.79-16-14.59-10.86-23.42,1.83-1.3,32.55,12.7,40.28,5.91,1.07-.94,3.44-15.08,3.33-17.48-.78-17.75-20.05-28.33-36.04-22.86-9.19,3.14-21.64,14.55-25.72,23.37-11.51,24.86,2.65,55.8,32.71,51.25,7.92-1.2,22.73-10.76,17.92-19.96ZM733.59,116.94c-11.12,4.2-22.48,1.72-30.23-7.5-20.87-24.82,12.12-73.4,42.49-54.48,5.99,3.73,8.37,9.02,8.63,15.85.55,14.58-1.51,16.44-16.01,14.44-6.6-.91-17.79-7.25-23.21-6.89-8.31.56-8.33,24.43,3.22,29.06,8.93,3.58,21.89-9.16,25.59-6.52,5.06,3.61-6.04,14.36-10.47,16.04ZM742.07,74.15c5.07-3.58-1.07-16.04-12.38-13.48-2.72.62-8.94,5.66-6.85,8.57,1.28,1.78,16.68,6.71,19.24,4.91ZM738.45,65.09c.3.35,1.14,3.28,1.14,3.78-.06,4.52-9.82-.03-12.86-.81,1.74-3.6,9.02-6.13,11.72-2.98Z"/>
</svg>