<svg xmlns="http://www.w3.org/2000/svg" fill="none" viewBox="0 0 24 24"><g filter="url(#a)"><path fill="#b8ff26" fill-rule="evenodd" d="M19.761 7.742a5.052 5.052 0 1 0-7.508 6.76l1.126 1.252q.146.16.306.3c-.484.28-.849.38-1.094.38-.34 0-.925-.189-1.745-.74-.782-.524-1.596-1.253-2.355-2.03a30 30 0 0 1-2.573-3.025l-.035-.047-.008-.011a1.685 1.685 0 0 0-2.733 1.968l.018.025.214.288a34 34 0 0 0 2.708 3.156c.841.861 1.838 1.77 2.887 2.474 1.011.678 2.279 1.31 3.622 1.31 1.361 0 2.597-.646 3.563-1.343.998-.718 1.914-1.641 2.673-2.51a29 29 0 0 0 2.59-3.473l.017-.028c.163-.263.244-.554.25-.843.034-1.085-.65-2.482-1.697-3.613zm-2.503 2.253a1.684 1.684 0 0 0-2.503 2.254l1.521 1.5.015-.016a26 26 0 0 0 1.578-2.013c.241-.544.024-1.02-.385-1.475z" clip-rule="evenodd"/></g><g filter="url(#b)"><path fill="#000" d="M11.692 5.803a6.85 6.85 0 0 1 9.404.737l.209.231.222.25C22.63 8.3 23.53 10.015 23.48 11.66v-.001a3.5 3.5 0 0 1-.517 1.733l-.003.006-.018.027-.003.004-.044.074-.16.248q-.102.156-.246.369l-.324.47a32 32 0 0 1-1.684 2.19l-.301.352c-.705.806-1.573 1.699-2.55 2.465l-.425.32c-1.088.785-2.699 1.681-4.613 1.681-1.643 0-3.1-.664-4.183-1.33l-.44-.284c-1.044-.7-2.011-1.556-2.83-2.366l-.342-.345a35 35 0 0 1-1.764-1.957l-.446-.544q-.205-.254-.367-.463l-.279-.363-.181-.242-.052-.071-.002-.003-.019-.027-.003-.005a3.48 3.48 0 0 1 .792-4.857l.147-.102a3.48 3.48 0 0 1 4.71.893h-.001l.004.005.027.038h.001q.041.057.13.173l.514.659.368.447c.243.29.518.607.814.933a6.84 6.84 0 0 1 2.235-5.753zm8.07 1.939a5.053 5.053 0 0 0-7.51 6.76l1.127 1.252q.146.16.306.3c-.484.279-.849.38-1.093.38-.34 0-.926-.189-1.746-.739-.782-.524-1.596-1.254-2.355-2.03a30 30 0 0 1-2.573-3.026l-.035-.047-.008-.011a1.685 1.685 0 0 0-2.733 1.968l.018.025.046.063.168.225a34 34 0 0 0 2.708 3.155c.841.862 1.837 1.77 2.887 2.475 1.01.678 2.28 1.31 3.623 1.31 1.36 0 2.596-.646 3.562-1.342.997-.719 1.914-1.642 2.673-2.511a29 29 0 0 0 2.55-3.41l.04-.063.017-.027c.163-.264.244-.556.25-.845.033-1.085-.65-2.481-1.698-3.612zM14.88 9.87a1.685 1.685 0 0 1 2.379.124l.224.25c.41.455.627.93.386 1.474-.403.57-.95 1.295-1.578 2.014l-.015.017-1.52-1.501a1.684 1.684 0 0 1 .124-2.378"/></g><g filter="url(#c)"><path fill="#fff" fill-rule="evenodd" d="M18.937 6.672a5.052 5.052 0 0 0-7.509 6.76l1.127 1.252q.146.16.306.3c-.484.28-.85.38-1.094.38-.34 0-.925-.189-1.746-.74-.781-.524-1.595-1.253-2.354-2.03A30 30 0 0 1 5.06 9.522l-.008-.011a1.685 1.685 0 0 0-2.734 1.968l.019.025.214.288a34 34 0 0 0 2.708 3.156c.841.861 1.837 1.77 2.887 2.474 1.01.678 2.279 1.31 3.622 1.31 1.361 0 2.597-.646 3.563-1.342.997-.719 1.914-1.642 2.673-2.511a29 29 0 0 0 2.59-3.473l.017-.027c.163-.264.244-.555.25-.844.033-1.085-.65-2.482-1.698-3.613zm-2.503 2.253a1.684 1.684 0 1 0-2.503 2.254l1.521 1.5.015-.016a26 26 0 0 0 1.577-2.013c.242-.544.024-1.02-.384-1.474z" clip-rule="evenodd"/></g><g filter="url(#d)"><path fill="#000" d="M10.868 4.733a6.85 6.85 0 0 1 9.404.737l.209.231.222.25c1.103 1.278 2.003 2.994 1.953 4.638v-.001a3.47 3.47 0 0 1-.517 1.733l-.003.006-.018.027-.003.004-.045.074-.16.248q-.102.156-.245.369l-.324.47a32 32 0 0 1-1.684 2.191l-.302.35c-.704.807-1.572 1.7-2.55 2.466l-.424.32c-1.088.785-2.699 1.681-4.613 1.681-1.644 0-3.1-.664-4.183-1.33l-.44-.284c-1.044-.7-2.012-1.555-2.83-2.366l-.342-.345a35 35 0 0 1-1.764-1.957l-.446-.544q-.205-.254-.367-.463l-.279-.363-.181-.242-.052-.071-.002-.003-.019-.027-.004-.005a3.48 3.48 0 0 1 .792-4.857l.148-.102a3.48 3.48 0 0 1 4.71.893h-.001l.004.005.027.038h.001q.04.056.129.173l.515.659.368.447c.243.29.518.607.814.933a6.84 6.84 0 0 1 2.235-5.753zm8.07 1.939a5.053 5.053 0 0 0-7.51 6.76l1.127 1.252q.145.16.305.3c-.483.279-.848.38-1.092.38-.341 0-.926-.189-1.747-.739-.781-.524-1.596-1.254-2.354-2.03a30 30 0 0 1-2.43-2.834q-.096-.127-.143-.192l-.035-.047-.008-.011a1.685 1.685 0 0 0-2.734 1.968l.019.025.046.063.168.225a34 34 0 0 0 2.708 3.155c.841.862 1.837 1.77 2.887 2.475 1.01.678 2.28 1.31 3.623 1.31 1.36 0 2.596-.646 3.562-1.342.997-.719 1.914-1.642 2.673-2.511a29 29 0 0 0 2.55-3.41l.04-.063.017-.027a1.7 1.7 0 0 0 .25-.845c.033-1.085-.65-2.481-1.698-3.612zM14.056 8.8a1.685 1.685 0 0 1 2.379.124l.224.25c.409.455.627.93.386 1.474a26 26 0 0 1-1.578 2.014l-.015.017-1.52-1.501a1.684 1.684 0 0 1 .124-2.378"/></g><defs><filter id="a" width="18.862" height="13.731" x="2.824" y="6.07" color-interpolation-filters="sRGB" filterUnits="userSpaceOnUse"><feFlood flood-opacity="0" result="BackgroundImageFix"/><feColorMatrix in="SourceAlpha" result="hardAlpha" values="0 0 0 0 0 0 0 0 0 0 0 0 0 0 0 0 0 0 127 0"/><feOffset/><feComposite in2="hardAlpha" operator="out"/><feColorMatrix values="0 0 0 0 0 0 0 0 0 0 0 0 0 0 0 0 0 0 1 0"/><feBlend in2="BackgroundImageFix" result="effect1_dropShadow_73_3139"/><feBlend in="SourceGraphic" in2="effect1_dropShadow_73_3139" result="shape"/></filter><filter id="b" width="22.454" height="17.324" x="1.028" y="4.274" color-interpolation-filters="sRGB" filterUnits="userSpaceOnUse"><feFlood flood-opacity="0" result="BackgroundImageFix"/><feColorMatrix in="SourceAlpha" result="hardAlpha" values="0 0 0 0 0 0 0 0 0 0 0 0 0 0 0 0 0 0 127 0"/><feOffset/><feComposite in2="hardAlpha" operator="out"/><feColorMatrix values="0 0 0 0 0 0 0 0 0 0 0 0 0 0 0 0 0 0 1 0"/><feBlend in2="BackgroundImageFix" result="effect1_dropShadow_73_3139"/><feBlend in="SourceGraphic" in2="effect1_dropShadow_73_3139" result="shape"/></filter><filter id="c" width="18.862" height="13.731" x="2" y="5" color-interpolation-filters="sRGB" filterUnits="userSpaceOnUse"><feFlood flood-opacity="0" result="BackgroundImageFix"/><feColorMatrix in="SourceAlpha" result="hardAlpha" values="0 0 0 0 0 0 0 0 0 0 0 0 0 0 0 0 0 0 127 0"/><feOffset/><feComposite in2="hardAlpha" operator="out"/><feColorMatrix values="0 0 0 0 0 0 0 0 0 0 0 0 0 0 0 0 0 0 1 0"/><feBlend in2="BackgroundImageFix" result="effect1_dropShadow_73_3139"/><feBlend in="SourceGraphic" in2="effect1_dropShadow_73_3139" result="shape"/></filter><filter id="d" width="22.454" height="17.324" x=".204" y="3.204" color-interpolation-filters="sRGB" filterUnits="userSpaceOnUse"><feFlood flood-opacity="0" result="BackgroundImageFix"/><feColorMatrix in="SourceAlpha" result="hardAlpha" values="0 0 0 0 0 0 0 0 0 0 0 0 0 0 0 0 0 0 127 0"/><feOffset/><feComposite in2="hardAlpha" operator="out"/><feColorMatrix values="0 0 0 0 0 0 0 0 0 0 0 0 0 0 0 0 0 0 1 0"/><feBlend in2="BackgroundImageFix" result="effect1_dropShadow_73_3139"/><feBlend in="SourceGraphic" in2="effect1_dropShadow_73_3139" result="shape"/></filter></defs></svg>
